<svg width="171" height="264" viewBox="0 0 171 264" fill="none" xmlns="http://www.w3.org/2000/svg">
<g id="plane2">
<path id="Vector" d="M74.1377 53.1604C72.8226 51.9773 71.4889 50.7919 70.1344 49.6226C69.7629 49.2932 69.7043 48.7217 70.0337 48.3502C70.3631 47.9787 70.9346 47.9201 71.3061 48.2496C72.6791 49.4212 74.0312 50.609 75.344 51.8106C75.7155 52.14 75.7533 52.7276 75.4054 53.0967C75.2058 53.3344 74.8933 53.4261 74.6159 53.3907C74.4309 53.367 74.2715 53.2903 74.1192 53.158L74.1377 53.1604ZM67.2008 44.7739C65.823 43.6392 64.4268 42.5022 63.0097 41.3813C62.6173 41.068 62.0459 41.1266 61.7303 41.5374C61.417 41.9298 61.4941 42.5036 61.8864 42.8168C63.285 43.9354 64.6836 45.0539 66.0429 46.1863C66.179 46.2976 66.3384 46.3744 66.5049 46.3957C66.8009 46.4335 67.1157 46.3233 67.3176 46.0671C67.6309 45.6747 67.5908 45.1057 67.1984 44.7924L67.2008 44.7739ZM97.1046 76.4523C97.345 76.483 97.5973 76.4213 97.8083 76.2414C98.1885 75.914 98.2432 75.3383 97.9158 74.9581C96.7537 73.6066 95.5732 72.2527 94.3741 70.8965C94.0467 70.5163 93.4662 70.4985 93.086 70.8259C92.7058 71.1533 92.6881 71.7338 93.0155 72.114C94.2169 73.4518 95.379 74.8033 96.5226 76.1524C96.6678 76.3402 96.8803 76.4425 97.1022 76.4708L97.1046 76.4523ZM69.388 238.563C68.0449 237.452 66.688 236.301 65.3174 235.111C64.9459 234.781 64.3768 234.822 64.0288 235.191C63.6994 235.562 63.7395 236.131 64.1087 236.479C65.4955 237.69 66.8685 238.862 68.2116 239.973C68.3478 240.085 68.5095 240.143 68.676 240.164C68.9719 240.202 69.2868 240.092 69.4887 239.836C69.8019 239.443 69.7434 238.872 69.3695 238.561L69.388 238.563ZM58.7466 38.111C57.3248 37.0271 55.8821 35.9593 54.4185 34.9077C54.0053 34.6105 53.4477 34.7085 53.1529 35.1032C52.8558 35.5164 52.9537 36.0741 53.3484 36.3688C54.7934 37.4181 56.2361 38.4859 57.6418 39.549C57.7803 39.6419 57.9236 39.6977 58.0716 39.7166C58.386 39.7568 58.7032 39.6281 58.9051 39.3719C59.1999 38.9772 59.1228 38.4034 58.7281 38.1086L58.7466 38.111ZM89.9492 68.4515C90.2082 68.4845 90.4813 68.4066 90.6761 68.2059C91.0402 67.8577 91.0556 67.2957 90.7258 66.934C89.5011 65.6309 88.2764 64.3278 87.0125 63.0384C86.6618 62.6929 86.0814 62.6751 85.7358 63.0258C85.3717 63.374 85.3725 63.9569 85.7232 64.3024C86.9687 65.5894 88.1956 66.874 89.4203 68.1771C89.5678 68.3464 89.7642 68.4278 89.9677 68.4538L89.9492 68.4515ZM57.5078 227.816C57.1572 227.47 56.5743 227.471 56.2288 227.822C55.8832 228.172 55.884 228.755 56.2346 229.101C57.5356 230.395 58.8437 231.633 60.1195 232.83C60.2718 232.963 60.4497 233.042 60.6161 233.063C60.8936 233.098 61.1876 233.004 61.3848 232.785C61.7327 232.416 61.7111 231.849 61.3419 231.501C60.0661 230.305 58.7766 229.068 57.4917 227.795L57.5078 227.816ZM81.9217 60.5084C82.0716 60.6592 82.2495 60.7383 82.4344 60.7619C82.7119 60.7973 82.9874 60.7009 83.2007 60.5026C83.5463 60.152 83.5455 59.5691 83.1949 59.2236C81.9262 57.9712 80.6181 56.7326 79.31 55.4941C78.9594 55.1485 78.3742 55.1678 78.0263 55.5369C77.6784 55.906 77.6999 56.4727 78.0691 56.8206C79.3795 58.0407 80.6691 59.2769 81.9194 60.5269L81.9217 60.5084ZM50.0695 220.117C49.7212 219.753 49.1616 219.719 48.779 220.065C48.415 220.414 48.3811 220.973 48.727 221.356C49.9654 222.698 51.2086 224.004 52.4194 225.267C52.5694 225.418 52.7634 225.518 52.9483 225.542C53.2073 225.575 53.4804 225.497 53.6937 225.299C54.0578 224.95 54.057 224.368 53.7064 224.022C52.4955 222.758 51.2685 221.474 50.0301 220.131L50.0695 220.117ZM147.057 186.355C147.261 188.148 147.429 189.918 147.564 191.664C147.602 192.101 147.934 192.445 148.359 192.499C148.415 192.506 148.489 192.515 148.544 192.523C149.037 192.491 149.413 192.051 149.382 191.558C149.25 189.793 149.086 187.986 148.885 186.175C148.835 185.68 148.392 185.322 147.879 185.369C147.384 185.419 147.024 185.881 147.074 186.376L147.057 186.355ZM147.859 197.003C147.931 198.798 147.947 200.586 147.949 202.334C147.945 202.804 148.291 203.186 148.735 203.243C148.772 203.248 148.809 203.253 148.846 203.257C149.353 203.266 149.761 202.867 149.751 202.358C149.772 200.575 149.737 198.784 149.67 196.952C149.658 196.462 149.222 196.049 148.729 196.08C148.22 196.09 147.847 196.513 147.857 197.022L147.859 197.003ZM50.007 31.7689C48.5388 30.7542 47.052 29.7372 45.5444 28.7363C45.1288 28.4577 44.5688 28.5741 44.2902 28.9897C44.0115 29.4052 44.128 29.9653 44.5435 30.2439C46.0327 31.2425 47.5218 32.241 48.9716 33.2533C49.0916 33.3438 49.2372 33.3812 49.3667 33.3977C49.6811 33.4379 50.0192 33.2931 50.2234 33.0184C50.5021 32.6028 50.4042 32.0452 49.9909 31.748L50.007 31.7689ZM145.513 175.781C145.832 177.551 146.114 179.316 146.38 181.061C146.441 181.464 146.778 181.77 147.167 181.819C147.241 181.829 147.333 181.841 147.412 181.813C147.909 181.745 148.251 181.281 148.182 180.784C147.919 179.021 147.637 177.255 147.302 175.464C147.215 174.964 146.749 174.642 146.249 174.728C145.749 174.815 145.426 175.281 145.513 175.781ZM147.796 207.654C147.699 209.446 147.564 211.233 147.4 212.961C147.339 213.441 147.696 213.882 148.195 213.946L148.214 213.948C148.713 214.012 149.156 213.636 149.201 213.134C149.37 211.37 149.507 209.564 149.609 207.735C149.636 207.231 149.239 206.804 148.754 206.78C148.249 206.753 147.825 207.131 147.798 207.635L147.796 207.654ZM144.47 170.553C144.552 170.94 144.873 171.225 145.243 171.272C145.335 171.284 145.446 171.298 145.546 171.255C146.03 171.147 146.355 170.662 146.247 170.179C145.886 168.441 145.473 166.677 145.04 164.911C144.914 164.425 144.427 164.119 143.941 164.245C143.455 164.371 143.148 164.858 143.274 165.344C143.709 167.091 144.088 168.831 144.47 170.553ZM130.974 130.067C131.105 130.366 131.382 130.552 131.678 130.59C131.845 130.611 132.016 130.595 132.176 130.522C132.634 130.317 132.834 129.779 132.63 129.32C131.896 127.704 131.128 126.064 130.339 124.441C130.116 123.98 129.575 123.798 129.133 124.024C128.672 124.247 128.49 124.787 128.716 125.23C129.505 126.853 130.259 128.453 130.993 130.07L130.974 130.067ZM138.828 149.963C138.936 150.296 139.246 150.524 139.579 150.566C139.708 150.583 139.842 150.562 139.979 150.523C140.451 150.358 140.705 149.845 140.558 149.375C139.984 147.685 139.392 145.993 138.784 144.28C138.618 143.808 138.085 143.57 137.612 143.736C137.14 143.901 136.903 144.435 137.068 144.907C137.679 146.602 138.273 148.275 138.831 149.944L138.828 149.963ZM106.752 257.603C105.069 257.388 103.347 257.037 101.6 256.588C101.126 256.471 100.619 256.764 100.502 257.237C100.382 257.73 100.677 258.219 101.151 258.335C102.972 258.794 104.768 259.155 106.525 259.379C107.025 259.443 107.484 259.088 107.545 258.607C107.609 258.108 107.273 257.651 106.773 257.587L106.752 257.603ZM77.8867 245.025C76.4715 244.036 75.0265 242.987 73.5885 241.882C73.1938 241.587 72.62 241.664 72.3252 242.059C72.0304 242.454 72.1075 243.027 72.5022 243.322C73.9748 244.45 75.4384 245.502 76.8697 246.512C76.9897 246.602 77.1353 246.64 77.2648 246.656C77.5792 246.696 77.9173 246.552 78.1215 246.277C78.4002 245.861 78.3022 245.304 77.889 245.007L77.8867 245.025ZM126.884 253.934C125.381 254.813 123.82 255.554 122.183 256.153C121.711 256.318 121.473 256.852 121.639 257.324C121.765 257.66 122.058 257.866 122.373 257.907C122.521 257.925 122.655 257.905 122.791 257.866C124.507 257.239 126.207 256.441 127.791 255.516C128.217 255.269 128.365 254.705 128.118 254.279C127.853 253.851 127.308 253.706 126.882 253.952L126.884 253.934ZM143.062 160.824C143.548 160.698 143.839 160.19 143.694 159.702C143.218 157.986 142.725 156.25 142.193 154.528C142.046 154.058 141.536 153.786 141.066 153.933C140.578 154.078 140.324 154.59 140.471 155.06C141.003 156.782 141.5 158.481 141.958 160.194C142.061 160.564 142.368 160.81 142.72 160.855C142.831 160.87 142.962 160.868 143.081 160.826L143.062 160.824ZM136.85 139.258C136.197 137.596 135.508 135.929 134.8 134.259C134.614 133.803 134.078 133.584 133.619 133.789C133.161 133.994 132.944 134.511 133.149 134.97C133.859 136.621 134.532 138.267 135.166 139.927C135.295 140.244 135.57 140.448 135.903 140.491C136.051 140.51 136.203 140.492 136.342 140.434C136.817 140.25 137.036 139.714 136.85 139.258ZM141.808 238.056C141.348 237.829 140.818 238.005 140.59 238.465C139.783 240.072 138.912 241.597 137.976 243.037C137.697 243.453 137.813 244.013 138.248 244.294C138.37 244.366 138.495 244.419 138.624 244.436C138.957 244.479 139.295 244.334 139.502 244.041C140.482 242.549 141.381 240.953 142.214 239.293C142.439 238.851 142.265 238.303 141.805 238.075L141.808 238.056ZM147.779 217.502C147.245 217.415 146.825 217.756 146.743 218.253C146.458 220.04 146.142 221.785 145.758 223.466C145.657 223.961 145.954 224.431 146.446 224.55C146.465 224.552 146.502 224.557 146.52 224.56C146.983 224.619 147.416 224.317 147.512 223.859C147.901 222.142 148.225 220.341 148.512 218.535C148.575 218.036 148.257 217.582 147.76 217.499L147.779 217.502ZM117.184 257.469C115.511 257.763 113.762 257.916 111.992 257.934C111.483 257.944 111.094 258.346 111.086 258.852C111.084 259.303 111.43 259.686 111.874 259.743C111.911 259.747 111.948 259.752 112.004 259.759C113.868 259.734 115.73 259.577 117.498 259.277C117.998 259.19 118.321 258.724 118.234 258.224C118.147 257.724 117.681 257.401 117.181 257.488L117.184 257.469ZM145.574 227.992C145.103 227.856 144.58 228.128 144.444 228.599C143.942 230.321 143.35 232.012 142.733 233.607C142.542 234.071 142.777 234.59 143.241 234.781C143.315 234.79 143.387 234.818 143.461 234.827C143.868 234.879 144.273 234.649 144.417 234.254C145.06 232.607 145.638 230.876 146.166 229.101C146.304 228.611 146.03 228.106 145.558 227.971L145.574 227.992ZM136.121 247.105C135.75 246.776 135.162 246.814 134.849 247.206C133.701 248.544 132.451 249.795 131.164 250.89C130.784 251.217 130.729 251.793 131.057 252.173C131.204 252.342 131.414 252.463 131.636 252.492C131.877 252.522 132.129 252.46 132.34 252.281C133.71 251.121 135.025 249.804 136.238 248.398C136.568 248.027 136.53 247.439 136.138 247.126L136.121 247.105ZM111.176 91.9723C110.142 90.5055 109.086 89.0548 108.012 87.6018C107.706 87.2055 107.153 87.1161 106.738 87.4203C106.342 87.7269 106.253 88.2794 106.557 88.6942C107.633 90.1287 108.67 91.5771 109.688 93.023C109.85 93.2316 110.076 93.3733 110.317 93.404C110.539 93.4324 110.77 93.3867 110.958 93.2415C111.37 92.9558 111.462 92.3848 111.176 91.9723ZM86.9498 250.6C85.4394 249.768 83.8991 248.876 82.3659 247.928C81.948 247.668 81.3855 247.803 81.1069 248.219C80.8467 248.636 80.9817 249.199 81.3996 249.459C82.9675 250.43 84.5424 251.345 86.0874 252.201C86.1937 252.252 86.3023 252.285 86.4132 252.299C86.7647 252.344 87.1445 252.167 87.3188 251.832C87.5629 251.393 87.3886 250.844 86.9498 250.6ZM103.919 84.7668C104.141 84.7952 104.393 84.7334 104.581 84.5882C104.977 84.2817 105.051 83.7083 104.744 83.3119C103.647 81.8935 102.529 80.4913 101.393 79.0866C101.086 78.6903 100.51 78.6355 100.112 78.9606C99.7152 79.2671 99.6605 79.8429 99.9855 80.2416C101.124 81.6277 102.224 83.0276 103.323 84.4276C103.469 84.6153 103.697 84.7385 103.919 84.7668ZM125.439 114.829C125.195 114.385 124.651 114.221 124.207 114.465C123.762 114.709 123.599 115.252 123.843 115.697C124.694 117.272 125.546 118.847 126.342 120.415C126.475 120.695 126.755 120.862 127.032 120.898C127.217 120.921 127.391 120.887 127.571 120.798C128.014 120.572 128.198 120.013 127.954 119.568C127.142 117.979 126.292 116.386 125.422 114.808L125.439 114.829ZM121.9 111.482C122.085 111.506 122.295 111.476 122.46 111.366C122.886 111.12 123.052 110.558 122.787 110.129C121.893 108.587 120.982 107.041 120.033 105.492C119.768 105.063 119.22 104.937 118.794 105.183C118.365 105.448 118.239 105.996 118.485 106.422C119.418 107.951 120.33 109.496 121.207 111.018C121.361 111.282 121.606 111.426 121.883 111.461L121.9 111.482ZM96.5942 255.009C94.9952 254.429 93.3526 253.749 91.7009 252.993C91.2389 252.783 90.7064 252.979 90.497 253.441C90.2876 253.903 90.4828 254.435 90.9448 254.645C92.6311 255.424 94.3293 256.111 95.9813 256.716C96.0553 256.726 96.1084 256.752 96.1824 256.761C96.5893 256.813 96.9947 256.583 97.1415 256.169C97.3139 255.702 97.0609 255.181 96.5942 255.009ZM114.238 96.4051C113.952 95.9926 113.384 95.8824 112.971 96.1681C112.559 96.4537 112.451 97.0039 112.734 97.4349C113.729 98.9155 114.722 100.415 115.678 101.909C115.835 102.154 116.063 102.278 116.322 102.311C116.526 102.337 116.739 102.289 116.922 102.181C117.35 101.916 117.461 101.347 117.196 100.918C116.242 99.4056 115.249 97.9065 114.238 96.4051Z" fill="#F411CF"/>
<path id="Vector_2" d="M13.6319 9.97984C9.45412 7.66041 3.92959 5.58254 3.42068 6.47626C2.92791 7.39083 7.62511 10.9421 11.8029 13.2615C12.1885 13.48 12.558 13.6775 12.9276 13.8751C13.0716 14.5139 13.3872 15.8701 13.7897 17.5757C13.7712 17.5734 13.7759 17.5364 13.7413 17.5131L12.6165 16.8995C12.4756 16.8251 12.2974 16.8964 12.2021 17.0534L11.5932 18.1411C11.498 18.2981 11.5483 18.4925 11.6892 18.5669L12.8139 19.1805C12.8139 19.1805 12.9434 19.1971 13.0174 19.2065L14.3153 19.9362C14.656 21.3896 15.0172 22.9772 15.3831 24.5278L14.2769 23.9166C14.136 23.8422 13.9577 23.9134 13.8624 24.0704L13.2535 25.1582C13.1583 25.3152 13.2087 25.5096 13.3496 25.584L14.4743 26.1976C14.4743 26.1976 14.6038 26.2141 14.6778 26.2236L15.941 26.9301C16.881 30.9038 17.6793 34.2203 17.7438 34.3037C17.9213 34.5332 19.6166 35.3888 19.6166 35.3888C20.0023 35.6073 20.3419 35.7446 20.3675 35.6915C20.3722 35.6545 19.9751 35.3782 19.608 35.1621L19.296 27.3022C19.6147 27.4557 19.8898 27.5096 19.9178 27.438C19.9689 27.3317 19.699 27.0905 19.3133 26.872L19.2763 26.8673L19.2135 25.299C19.5161 25.4317 19.7703 25.5017 19.8191 25.414C19.8703 25.3077 19.6003 25.0665 19.2147 24.848L19.1514 23.4301L19.3852 22.4824C19.7386 22.6591 20.0644 22.7571 20.1156 22.6509C20.1668 22.5446 19.8968 22.3034 19.5111 22.0849L19.4927 22.0826L19.9442 20.1664C20.2976 20.3431 20.6073 20.4203 20.6561 20.3325C20.7073 20.2263 20.4373 19.985 20.0516 19.7666L20.0332 19.7642L20.4449 18.0122C23.2764 19.5393 24.4059 20.1159 26.4774 21.264C28.5675 22.4145 30.6626 23.3776 32.4855 24.118C33.0001 26.2703 33.9901 30.5888 33.9901 30.5888L35.1168 31.3342L36.698 25.5771C37.1163 25.6869 37.4654 25.7503 37.7243 25.7834C38.6298 26.1998 39.2028 26.4234 39.2493 26.3541C39.2981 26.2664 38.818 25.9043 38.0191 25.3887C37.8554 25.1986 37.5878 24.9388 37.214 24.6279L41.278 20.1842L40.0513 19.6328C40.0513 19.6328 35.6041 21.189 33.5809 21.8705C32.0481 20.7724 30.2312 19.544 28.3056 18.283C25.7075 16.8421 24.5875 16.1915 22.2227 14.8367L23.4751 13.568C23.8608 13.7864 24.2236 13.8892 24.2747 13.7829C24.3235 13.6952 24.0883 13.4771 23.7396 13.2634L25.1218 11.8609L25.1403 11.8633C25.526 12.0817 25.8888 12.1844 25.94 12.0782C25.9888 11.9904 25.7558 11.7539 25.4048 11.5587L26.0959 10.8574L27.3328 10.1507C27.7185 10.3691 28.0813 10.4718 28.1325 10.3656C28.1813 10.2778 27.9968 10.1039 27.7197 9.9181L29.0771 9.15155L29.1141 9.15627C29.4974 9.39321 29.8626 9.47745 29.9114 9.3897C29.9602 9.30194 29.7595 9.10712 29.464 8.91899L36.2974 5.01697C36.6669 5.21456 37.1289 5.42395 37.1521 5.38932C37.1777 5.33619 36.8846 5.12956 36.4989 4.91112C36.4989 4.91112 34.8964 3.91692 34.6005 3.87912C34.4895 3.86495 31.2486 4.95489 27.3965 6.26753L26.1332 5.56104C26.1332 5.56104 26.0757 5.42211 26.0226 5.39653L24.8979 4.78292C24.757 4.70853 24.5787 4.77975 24.4835 4.93677L23.8746 6.0245C23.7793 6.18152 23.8297 6.37594 23.9706 6.45033L25.0768 7.06157C23.5628 7.58254 22.0303 8.10114 20.6135 8.59693L19.3156 7.86722C19.3156 7.86722 19.2582 7.72829 19.205 7.70271L18.0803 7.08909C17.9394 7.01471 17.7611 7.08593 17.6659 7.24295L17.057 8.33068C16.9618 8.4877 17.0122 8.68212 17.153 8.75651L18.2777 9.37011C18.2777 9.37011 18.3332 9.3772 18.3517 9.37956C16.7197 9.94185 15.4209 10.3963 14.7912 10.6167C14.4217 10.4191 14.0545 10.203 13.6689 9.98456L13.6319 9.97984Z" fill="#F411CF"/>
</g>
</svg>
