<svg width="32" height="32" viewBox="0 0 32 32" fill="none" xmlns="http://www.w3.org/2000/svg" aria-hidden="true">
  <rect width="32" height="32" rx="8" fill="#f97316"/>
  <path
    d="M20.3333 21.6562L21.1505 21.4928C21.1495 21.4877 21.1484 21.4826 21.1473 21.4776L20.3333 21.6562ZM18.8333 14.8229L18.2441 14.2337C18.0432 14.4346 17.9585 14.724 18.0194 15.0016L18.8333 14.8229ZM23 8.15625L23.7454 7.78357C23.6647 7.6223 23.534 7.49153 23.3727 7.41089L23 8.15625ZM16.3333 12.3229L16.1547 13.1369C16.4322 13.1978 16.7217 13.1131 16.9226 12.9122L16.3333 12.3229ZM9.5 10.8229L9.67867 10.009C9.6736 10.0078 9.66852 10.0068 9.66343 10.0058L9.5 10.8229ZM8.58333 11.2396L9.29791 11.6683C9.30888 11.65 9.31915 11.6313 9.32869 11.6123L8.58333 11.2396ZM8.33333 11.6562L7.61876 11.2275C7.59589 11.2656 7.57611 11.3055 7.5596 11.3468L8.33333 11.6562ZM8.58333 12.7396L8.08333 13.4062C8.09664 13.4162 8.11024 13.4258 8.12412 13.435L8.58333 12.7396ZM13 15.6562L13.6934 16.1185C13.8163 15.9341 13.8607 15.7083 13.8168 15.491C13.7728 15.2738 13.6442 15.083 13.4592 14.9609L13 15.6562ZM11.3333 18.1562L11.3333 18.9896C11.612 18.9896 11.8722 18.8503 12.0267 18.6185L11.3333 18.1562ZM8.83333 18.1562L8.83333 17.3229C8.61232 17.3229 8.40036 17.4107 8.24408 17.567L8.83333 18.1562ZM8 18.9896L7.41074 18.4003C7.23421 18.5769 7.14612 18.8233 7.17072 19.0717C7.19532 19.3201 7.33002 19.5445 7.53775 19.683L8 18.9896ZM10.5 20.6562L11.1934 20.194C11.1324 20.1025 11.0538 20.0239 10.9623 19.9629L10.5 20.6562ZM12.1667 23.1562L11.4733 23.6185C11.6118 23.8262 11.8361 23.9609 12.0845 23.9855C12.333 24.0101 12.5794 23.922 12.7559 23.7455L12.1667 23.1562ZM13 22.3229L13.5893 22.9122C13.7455 22.7559 13.8333 22.5439 13.8333 22.3229L13 22.3229ZM13 19.8229L12.5378 19.1295C12.3059 19.2841 12.1667 19.5443 12.1667 19.8229L13 19.8229ZM15.5 18.1562L16.1954 17.697C16.0733 17.5121 15.8825 17.3834 15.6652 17.3395C15.448 17.2955 15.2222 17.3399 15.0378 17.4629L15.5 18.1562ZM18.4167 22.5729L17.7213 23.0321C17.7304 23.046 17.74 23.0596 17.75 23.0729L18.4167 22.5729ZM19.5 22.8229L19.8095 23.5966L19.8095 23.5966L19.5 22.8229ZM19.9167 22.6562L20.2262 23.43C20.2941 23.4028 20.3581 23.3668 20.4167 23.3229L19.9167 22.6562ZM20.3333 21.6562L21.1473 21.4776L19.6473 14.6442L18.8333 14.8229L18.0194 15.0016L19.5194 21.8349L20.3333 21.6562ZM18.8333 14.8229L19.4226 15.4122L22.3393 12.4955L21.75 11.9062L21.1607 11.317L18.2441 14.2337L18.8333 14.8229ZM21.75 11.9062L22.3393 12.4955C23.0594 11.7754 23.5478 10.9284 23.7965 10.1201C24.0358 9.34225 24.0891 8.47112 23.7454 7.78357L23 8.15625L22.2546 8.52893C22.3275 8.67471 22.3809 9.05358 22.2035 9.62993C22.0356 10.1757 21.6906 10.7871 21.1607 11.317L21.75 11.9062ZM23 8.15625L23.3727 7.41089C22.6851 7.06712 21.814 7.12044 21.0362 7.35977C20.2278 7.60849 19.3808 8.09689 18.6607 8.81699L19.25 9.40625L19.8393 9.99551C20.3692 9.46561 20.9805 9.12068 21.5263 8.95273C22.1027 8.7754 22.4815 8.82871 22.6273 8.90161L23 8.15625ZM19.25 9.40625L18.6607 8.81699L15.7441 11.7337L16.3333 12.3229L16.9226 12.9122L19.8393 9.99551L19.25 9.40625ZM16.3333 12.3229L16.512 11.509L9.67867 10.009L9.5 10.8229L9.32133 11.6369L16.1547 13.1369L16.3333 12.3229ZM9.5 10.8229L9.66343 10.0058C8.90359 9.8538 8.18398 10.1749 7.83798 10.8669L8.58333 11.2396L9.32869 11.6123C9.33292 11.6038 9.33369 11.6052 9.32754 11.6114C9.32461 11.6143 9.32066 11.6178 9.3157 11.6212C9.31073 11.6247 9.3055 11.6277 9.30032 11.6302C9.28926 11.6353 9.28322 11.6356 9.28619 11.6353C9.28966 11.635 9.30579 11.6339 9.33657 11.6401L9.5 10.8229ZM8.58333 11.2396L7.86876 10.8108L7.61876 11.2275L8.33333 11.6562L9.04791 12.085L9.29791 11.6683L8.58333 11.2396ZM8.33333 11.6562L7.5596 11.3468C7.28245 12.0396 7.38949 12.8859 8.08333 13.4062L8.58333 12.7396L9.08333 12.0729C9.07647 12.0678 9.07739 12.0669 9.08046 12.0717C9.08345 12.0763 9.08439 12.08 9.08432 12.0796C9.08422 12.0792 9.0765 12.0421 9.10706 11.9657L8.33333 11.6562ZM8.58333 12.7396L8.12412 13.435L12.5408 16.3516L13 15.6562L13.4592 14.9609L9.04255 12.0442L8.58333 12.7396ZM13 15.6562L12.3066 15.194L10.64 17.694L11.3333 18.1562L12.0267 18.6185L13.6934 16.1185L13 15.6562ZM11.3333 18.1562L11.3333 17.3229L8.83333 17.3229L8.83333 18.1562L8.83333 18.9896L11.3333 18.9896L11.3333 18.1562ZM8.83333 18.1562L8.24408 17.567L7.41074 18.4003L8 18.9896L8.58926 19.5788L9.42259 18.7455L8.83333 18.1562ZM8 18.9896L7.53775 19.683L10.0378 21.3496L10.5 20.6562L10.9623 19.9629L8.46225 18.2962L8 18.9896ZM10.5 20.6562L9.80662 21.1185L11.4733 23.6185L12.1667 23.1562L12.86004 22.694L11.1934 20.194L10.5 20.6562ZM12.1667 23.1562L12.7559 23.7455L13.5893 22.9122L13 22.3229L12.4107 21.7337L11.5774 22.567L12.1667 23.1562ZM13 22.3229L13.8333 22.3229L13.8333 19.8229L13 19.8229L12.1667 19.8229L12.1667 22.3229L13 22.3229ZM13 19.8229L13.4623 20.5163L15.9623 18.8496L15.5 18.1562L15.0378 17.4629L12.5378 19.1295L13 19.8229ZM15.5 18.1562L14.8046 18.6155L17.7213 23.0321L18.4167 22.5729L19.1121 22.1137L16.1954 17.697L15.5 18.1562ZM18.4167 22.5729L17.75 23.0729C18.2704 23.7668 19.1166 23.8738 19.8095 23.5966L19.5 22.8229L19.1905 22.0492C19.1141 22.0798 19.0771 22.072 19.0766 22.0719C19.0763 22.0719 19.0799 22.0728 19.0846 22.0758C19.0893 22.0789 19.0885 22.0798 19.0833 22.0729L18.4167 22.5729ZM19.5 22.8229L19.8095 23.5966L20.2262 23.43L19.9167 22.6562L19.6072 21.8825L19.1905 22.0492L19.5 22.8229ZM19.9167 22.6562L20.4167 23.3229C20.955 22.9192 21.3085 22.283 21.1505 21.4928L20.3333 21.6562L19.5162 21.8197C19.5222 21.8498 19.5214 21.8664 19.5208 21.8725C19.5203 21.8781 19.5193 21.8812 19.5178 21.8847C19.5149 21.8914 19.4958 21.9303 19.4167 21.9896L19.9167 22.6562Z"
    fill="#f8f9fd"
  />
</svg>
