<svg width="306" height="299" viewBox="0 0 306 299" fill="none" xmlns="http://www.w3.org/2000/svg">
<g id="plane">
<path id="Vector" d="M40.3074 196.174C40.0118 196.392 39.6279 196.388 39.3362 196.222C39.2228 196.157 39.1186 196.077 39.049 195.973C37.9849 194.488 36.9715 192.989 36.0091 191.476C35.7401 191.044 35.8616 190.491 36.2936 190.222C36.7255 189.953 37.2784 190.074 37.5475 190.506C38.4705 191.975 39.4676 193.465 40.5086 194.915C40.7961 195.315 40.7069 195.886 40.3074 196.174ZM107.261 72.1007C107.73 71.9172 107.951 71.378 107.759 70.9251C107.575 70.4559 107.036 70.2349 106.583 70.4277C104.894 71.0967 103.237 71.7843 101.612 72.4902C101.159 72.683 100.938 73.2222 101.131 73.6751C101.212 73.8715 101.347 74.0124 101.509 74.1046C101.752 74.2429 102.043 74.2585 102.316 74.1563C103.931 73.4665 105.588 72.779 107.252 72.1169L107.261 72.1007ZM34.8798 185.921C34.0375 184.347 33.2552 182.744 32.547 181.161C32.3381 180.699 31.8058 180.503 31.3529 180.696C30.8908 180.905 30.6952 181.437 30.8879 181.89C31.6101 183.524 32.4155 185.162 33.281 186.77C33.3646 186.925 33.492 187.04 33.6378 187.123C33.8971 187.271 34.2301 187.289 34.5143 187.129C34.9532 186.885 35.1326 186.343 34.889 185.905L34.8798 185.921ZM88.1735 79.7089C87.9553 79.263 87.3884 79.0906 86.9587 79.318C85.3275 80.1488 83.738 80.9819 82.1809 81.8334C81.742 82.077 81.5788 82.6277 81.8224 83.0667C81.906 83.2214 82.0334 83.3368 82.1792 83.4198C82.4385 83.5674 82.7715 83.5853 83.0557 83.4252C84.6035 82.5899 86.1768 81.7476 87.7826 80.9237C88.2285 80.7055 88.4171 80.1478 88.1735 79.7089ZM29.0578 171.196C28.9251 170.713 28.432 170.411 27.9397 170.56C27.4566 170.692 27.1546 171.185 27.3035 171.678C27.753 173.414 28.2857 175.154 28.8947 176.873C28.9668 177.086 29.1243 177.261 29.3026 177.363C29.5294 177.492 29.7954 177.515 30.0589 177.429C30.535 177.27 30.7722 176.74 30.6141 176.264C30.0191 174.596 29.5095 172.89 29.074 171.205L29.0578 171.196ZM126.864 63.1341C125.131 63.6923 123.439 64.2527 121.748 64.8131C121.271 64.9712 121.018 65.492 121.176 65.9681C121.248 66.1807 121.406 66.3562 121.584 66.4576C121.795 66.5775 122.077 66.6093 122.315 66.5303C123.99 65.9606 125.682 65.4003 127.39 64.8491C127.866 64.691 128.136 64.1794 127.978 63.7033C127.82 63.2272 127.308 62.9576 126.832 63.1157L126.864 63.1341ZM54.8123 210.605C53.4735 209.415 52.1786 208.184 50.9253 206.956C50.5777 206.587 49.9835 206.614 49.6395 206.954C49.2863 207.311 49.2966 207.896 49.6626 208.233C50.9229 209.486 52.2595 210.719 53.6053 211.935C53.6539 211.963 53.7095 212.016 53.7581 212.043C54.1146 212.246 54.6024 212.181 54.8863 211.87C55.2233 211.504 55.1875 210.926 54.8215 210.589L54.8123 210.605ZM117.823 67.1489C117.655 66.689 117.135 66.4356 116.659 66.5937C114.955 67.2119 113.268 67.8394 111.607 68.4598C111.138 68.6434 110.91 69.1572 111.068 69.6333C111.149 69.8297 111.29 69.9959 111.469 70.0974C111.696 70.2265 111.978 70.2583 112.25 70.1561C113.896 69.5264 115.574 68.9151 117.277 68.2969C117.737 68.1296 117.99 67.6088 117.832 67.1327L117.823 67.1489ZM148.643 57.8082C148.511 57.3251 148.018 57.023 147.534 57.1557C145.773 57.6122 144.053 58.0709 142.334 58.5296C141.851 58.6623 141.565 59.1646 141.698 59.6477C141.751 59.8927 141.925 60.0774 142.119 60.188C142.314 60.2987 142.571 60.3375 142.799 60.2747C144.503 59.8068 146.223 59.3481 147.975 58.9078C148.458 58.7751 148.76 58.282 148.627 57.7989L148.643 57.8082ZM47.2391 203.143C46.0249 201.808 44.8616 200.46 43.7561 199.123C43.4432 198.73 42.8696 198.683 42.477 198.996C42.0845 199.309 42.0369 199.882 42.3498 200.275C43.4623 201.637 44.6489 203.02 45.8955 204.373C45.958 204.452 46.0391 204.498 46.1201 204.544C46.4604 204.738 46.8881 204.702 47.179 204.417C47.5484 204.07 47.5705 203.503 47.2391 203.143ZM132.535 63.2719C134.224 62.7531 135.93 62.2436 137.668 61.7525C138.151 61.6198 138.421 61.1082 138.305 60.6343C138.172 60.1513 137.66 59.8816 137.186 59.9981C135.439 60.5054 133.717 61.0057 132.028 61.5245C131.552 61.6826 131.275 62.1688 131.424 62.6611C131.487 62.8899 131.644 63.0653 131.839 63.176C132.049 63.2959 132.306 63.3347 132.544 63.2557L132.535 63.2719ZM34.6432 125.68C35.0807 125.929 35.6147 125.782 35.8798 125.354C36.7466 123.831 37.7036 122.337 38.693 120.862C38.9743 120.443 38.8623 119.886 38.4432 119.605C38.0312 119.349 37.467 119.435 37.1857 119.854C36.1616 121.353 35.1932 122.904 34.2918 124.45C34.0428 124.888 34.1803 125.438 34.6178 125.687L34.6432 125.68ZM31.2767 134.876C31.8981 133.256 32.612 131.624 33.3908 130.03C33.6073 129.574 33.4191 129.037 32.9631 128.821C32.5071 128.604 31.971 128.793 31.7544 129.249C30.9572 130.876 30.2318 132.565 29.5827 134.234C29.4263 134.66 29.5844 135.136 29.9733 135.357C30.0057 135.375 30.0543 135.403 30.0867 135.421C30.5611 135.606 31.0833 135.366 31.2582 134.908L31.2767 134.876ZM40.5517 116.729C40.5517 116.729 40.6327 116.775 40.6651 116.793C41.054 117.015 41.5603 116.917 41.8302 116.555C42.8892 115.184 44.0244 113.792 45.199 112.444C45.5198 112.069 45.484 111.491 45.1088 111.17C44.7336 110.85 44.1556 110.885 43.8348 111.261C42.6417 112.641 41.4811 114.04 40.4037 115.443C40.0899 115.844 40.1765 116.408 40.5609 116.713L40.5517 116.729ZM47.5115 108.569C47.5115 108.569 47.6227 108.675 47.6875 108.712C48.044 108.915 48.4902 108.847 48.781 108.562C49.9836 107.316 51.2786 106.058 52.5876 104.851C52.957 104.503 52.9791 103.936 52.6316 103.567C52.284 103.198 51.7174 103.176 51.348 103.523C50.0206 104.763 48.7163 106.037 47.4791 107.306C47.1259 107.663 47.1362 108.248 47.5022 108.585L47.5115 108.569ZM91.7442 78.523C91.9872 78.6613 92.3111 78.6954 92.586 78.5516C94.171 77.8017 95.7815 77.0449 97.4336 76.2904C97.8957 76.0814 98.0913 75.5492 97.8823 75.087C97.6734 74.6249 97.1411 74.4293 96.679 74.6383C95.0107 75.3836 93.4003 76.1404 91.7968 76.9227C91.3509 77.1408 91.1553 77.6731 91.3642 78.1352C91.4385 78.3062 91.5729 78.447 91.735 78.5392L91.7442 78.523ZM27.3207 160.79C27.2805 160.295 26.8497 159.922 26.3387 159.953C25.8439 159.993 25.4701 160.424 25.501 160.935C25.6384 162.729 25.866 164.553 26.163 166.331C26.2143 166.618 26.3859 166.844 26.6128 166.973C26.791 167.074 27.0061 167.111 27.2165 167.081C27.7136 166.999 28.048 166.524 27.957 166.043C27.6578 164.307 27.4441 162.534 27.3115 160.806L27.3207 160.79ZM63.713 94.535C63.7988 94.6481 63.8868 94.7197 64.0002 94.7842C64.3081 94.9594 64.685 94.9379 64.9714 94.7362C66.3871 93.7184 67.8445 92.7029 69.3435 91.6896C69.7592 91.4113 69.8646 90.8492 69.5863 90.4335C69.3081 90.0177 68.7459 89.9123 68.3302 90.1906C66.8058 91.2109 65.323 92.2334 63.898 93.2674C63.4985 93.5549 63.4093 94.1262 63.6968 94.5258L63.713 94.535ZM29.5791 139.895C29.7217 139.418 29.4571 138.903 28.9712 138.777C28.4946 138.634 27.9956 138.908 27.8531 139.385C27.3336 141.127 26.8952 142.915 26.5422 144.666C26.4712 145.055 26.6592 145.441 26.9833 145.625C27.0643 145.671 27.1454 145.718 27.2448 145.731C27.7237 145.832 28.2088 145.507 28.3096 145.029C28.6604 143.319 29.0873 141.588 29.5791 139.895ZM60.8678 96.67C60.5549 96.2774 59.9906 96.2137 59.6072 96.5104C58.1686 97.6438 56.7716 98.7795 55.4162 99.9174C55.0398 100.24 54.9923 100.813 55.3144 101.19C55.377 101.268 55.465 101.34 55.5622 101.395C55.8863 101.579 56.3049 101.56 56.6027 101.3C57.9327 100.17 59.3043 99.0409 60.7337 97.9236C61.1262 97.6107 61.19 97.0464 60.8933 96.663L60.8678 96.67ZM27.4866 150.245C27.5389 149.738 27.1866 149.302 26.68 149.25C26.1735 149.197 25.7371 149.55 25.6848 150.056C25.4961 151.858 25.3815 153.68 25.3501 155.507C25.3484 155.85 25.5247 156.143 25.8164 156.309C25.946 156.383 26.0941 156.424 26.2444 156.424C26.7532 156.434 27.1502 156.038 27.1609 155.53C27.197 153.77 27.3002 152.005 27.4774 150.261L27.4866 150.245ZM78.7476 84.8136C78.504 84.3746 77.9441 84.2276 77.4959 84.4875C75.9182 85.413 74.382 86.3408 72.8713 87.2616C72.4393 87.5307 72.3178 88.0836 72.5868 88.5156C72.6634 88.6449 72.7746 88.7511 72.9042 88.8249C73.1797 88.9816 73.5381 88.9925 73.8315 88.8162C75.326 87.8862 76.853 86.9746 78.4053 86.056C78.8442 85.8124 78.9912 85.2525 78.7222 84.8206L78.7476 84.8136ZM184.355 252.528C182.561 252.515 180.785 252.469 179.009 252.424C178.5 252.414 178.087 252.8 178.076 253.309C178.074 253.651 178.258 253.97 178.533 254.127C178.663 254.201 178.811 254.242 178.961 254.242C180.737 254.287 182.539 254.326 184.349 254.348C184.842 254.349 185.265 253.946 185.266 253.453C185.267 252.961 184.864 252.538 184.372 252.537L184.355 252.528ZM162.977 251.496C161.182 251.333 159.412 251.162 157.652 250.976C157.146 250.924 156.709 251.276 156.657 251.783C156.621 252.148 156.811 252.492 157.119 252.667C157.216 252.723 157.339 252.771 157.463 252.778C159.24 252.973 161.035 253.137 162.829 253.3C163.32 253.343 163.765 252.974 163.809 252.484C163.852 251.994 163.483 251.548 162.993 251.505L162.977 251.496ZM173.659 252.212C171.86 252.132 170.079 252.019 168.324 251.9C167.824 251.873 167.395 252.251 167.352 252.741C167.325 253.091 167.524 253.419 167.816 253.585C167.929 253.649 168.061 253.681 168.202 253.697C169.983 253.81 171.764 253.922 173.579 254.011C174.079 254.038 174.492 253.651 174.519 253.152C174.546 252.652 174.168 252.222 173.659 252.212ZM131.261 246.727C129.503 246.349 127.763 245.938 126.048 245.52C125.563 245.394 125.071 245.693 124.96 246.188C124.864 246.584 125.059 246.995 125.399 247.189C125.464 247.226 125.545 247.272 125.628 247.276C127.359 247.703 129.108 248.098 130.882 248.485C131.377 248.595 131.853 248.287 131.963 247.792C132.073 247.297 131.765 246.821 131.27 246.711L131.261 246.727ZM152.341 250.357C150.558 250.136 148.793 249.882 147.037 249.612C146.54 249.544 146.071 249.878 146.003 250.375C145.941 250.747 146.138 251.117 146.446 251.292C146.543 251.348 146.65 251.387 146.766 251.41C148.521 251.679 150.312 251.926 152.095 252.147C152.592 252.215 153.054 251.856 153.097 251.366C153.166 250.868 152.806 250.407 152.316 250.364L152.341 250.357ZM141.763 248.778C139.984 248.473 138.24 248.146 136.496 247.818C136.008 247.734 135.532 248.042 135.422 248.537C135.351 248.926 135.539 249.312 135.863 249.496C135.944 249.542 136.025 249.588 136.15 249.595C137.91 249.932 139.671 250.269 141.45 250.573C141.938 250.658 142.407 250.324 142.491 249.836C142.576 249.348 142.242 248.879 141.754 248.794L141.763 248.778ZM195.065 252.444C193.259 252.488 191.487 252.51 189.716 252.532C189.223 252.53 188.817 252.943 188.816 253.435C188.814 253.778 188.999 254.055 189.275 254.212C189.405 254.285 189.569 254.336 189.728 254.319C191.516 254.307 193.313 254.278 195.119 254.233C195.621 254.219 196.011 253.797 196.012 253.304C195.997 252.803 195.576 252.413 195.083 252.411L195.065 252.444ZM216.435 251.154C214.647 251.317 212.869 251.463 211.091 251.61C210.596 251.65 210.223 252.081 210.254 252.592C210.27 252.902 210.465 253.163 210.708 253.301C210.854 253.384 211.044 253.427 211.219 253.42C212.997 253.274 214.792 253.136 216.588 252.957C217.083 252.917 217.45 252.461 217.41 251.966C217.369 251.471 216.913 251.104 216.418 251.144L216.435 251.154ZM228.087 250.769C228.021 250.282 227.565 249.915 227.077 249.98C225.295 250.21 223.53 250.408 221.766 250.605C221.262 250.662 220.905 251.102 220.961 251.606C221.003 251.909 221.166 252.151 221.409 252.289C221.571 252.382 221.76 252.425 221.962 252.411C223.726 252.213 225.515 252.009 227.298 251.779C227.786 251.714 228.152 251.257 228.087 250.769ZM205.752 251.982C203.951 252.094 202.184 252.183 200.402 252.263C199.9 252.278 199.51 252.699 199.541 253.21C199.548 253.536 199.734 253.813 199.993 253.961C200.139 254.044 200.303 254.094 200.479 254.087C202.262 254.008 204.054 253.912 205.855 253.8C206.366 253.769 206.74 253.338 206.7 252.843C206.659 252.349 206.238 251.958 205.743 251.999L205.752 251.982ZM71.8858 223.388C70.3671 222.438 68.883 221.465 67.4173 220.459C67.0005 220.136 66.4411 220.29 66.169 220.693C65.8876 221.112 65.9996 221.669 66.4025 221.941C67.8681 222.947 69.3847 223.938 70.9196 224.898L70.952 224.916C71.3733 225.156 71.898 225.025 72.1702 224.623C72.4353 224.194 72.3071 223.628 71.895 223.372L71.8858 223.388ZM179.399 52.0126C179.896 51.9308 180.214 51.4469 180.132 50.9499C180.041 50.469 179.566 50.1346 179.069 50.2164C177.289 50.555 175.535 50.8865 173.796 51.2273C173.306 51.3346 172.981 51.793 173.079 52.2993C173.14 52.5698 173.295 52.7869 173.522 52.9159C173.7 53.0174 173.932 53.0632 174.151 53.0166C175.89 52.6758 177.644 52.3442 179.424 52.0057L179.399 52.0126ZM168.512 52.296C166.739 52.66 164.982 53.0332 163.258 53.4248C162.768 53.5321 162.449 54.016 162.557 54.5061C162.617 54.7765 162.782 54.9774 162.992 55.0973C163.187 55.2079 163.402 55.2445 163.638 55.2071C165.362 54.8155 167.11 54.4585 168.883 54.0945C169.373 53.9872 169.682 53.5196 169.584 53.0133C169.477 52.5232 168.993 52.205 168.503 52.3122L168.512 52.296ZM120.868 244.181C119.14 243.713 117.421 243.228 115.727 242.736C115.251 242.594 114.752 242.867 114.609 243.344C114.487 243.747 114.664 244.19 115.02 244.393C115.085 244.43 115.134 244.458 115.208 244.478C116.918 244.98 118.653 245.474 120.397 245.951C120.883 246.078 121.382 245.804 121.509 245.318C121.635 244.832 121.345 244.324 120.875 244.207L120.868 244.181ZM81.1179 228.727C79.9003 228.077 78.7082 227.42 77.5414 226.757L76.4557 226.139C76.0875 225.843 75.4681 226.027 75.2191 226.465C74.9702 226.902 75.1076 227.452 75.5451 227.701L76.647 228.328C77.8299 229.001 79.0291 229.684 80.2721 230.327C80.7096 230.576 81.262 230.397 81.4947 229.95C81.7437 229.512 81.5716 228.985 81.1179 228.727ZM63.0919 217.355C61.6469 216.275 60.2528 215.181 58.884 214.081C58.4996 213.776 57.9215 213.812 57.6078 214.213C57.2778 214.604 57.339 215.175 57.7396 215.489C59.1153 216.615 60.5418 217.727 62.003 218.816C62.0354 218.834 62.0678 218.853 62.1002 218.871C62.4891 219.092 62.9954 218.994 63.2745 218.617C63.5721 218.207 63.4855 217.643 63.0919 217.355ZM158.017 54.6045C156.258 55.0193 154.499 55.4341 152.782 55.8512C152.298 55.9839 152.006 56.4608 152.113 56.9509C152.183 57.2051 152.331 57.3968 152.542 57.5167C152.736 57.6273 152.968 57.6731 153.196 57.6103C154.914 57.1932 156.657 56.7692 158.407 56.3706C158.897 56.2633 159.199 55.7702 159.091 55.2801C158.984 54.79 158.491 54.488 158.001 54.5953L158.017 54.6045ZM100.557 237.579C98.8884 236.93 97.2291 236.265 95.5952 235.592C95.13 235.392 94.6009 235.606 94.4167 236.08C94.2348 236.513 94.4091 236.998 94.798 237.219C94.8304 237.238 94.8628 237.256 94.8952 237.275C96.5361 237.973 98.1954 238.638 99.9055 239.289C100.38 239.473 100.902 239.234 101.077 238.776C101.261 238.302 101.038 237.789 100.564 237.604L100.557 237.579ZM110.627 241.143C108.929 240.584 107.231 240.025 105.56 239.418C105.092 239.259 104.57 239.498 104.412 239.965C104.255 240.391 104.448 240.844 104.821 241.056C104.869 241.084 104.918 241.112 104.966 241.139C106.646 241.731 108.352 242.315 110.076 242.867C110.543 243.025 111.058 242.761 111.226 242.277C111.385 241.81 111.12 241.295 110.653 241.136L110.627 241.143ZM190.711 49.0968C190.629 48.5998 190.154 48.2653 189.674 48.3564C187.896 48.6533 186.118 48.9502 184.373 49.2656C183.876 49.3474 183.541 49.8221 183.639 50.3284C183.691 50.615 183.862 50.8413 184.089 50.9704C184.267 51.0719 184.482 51.1085 184.693 51.078C186.438 50.7627 188.191 50.4727 189.968 50.1758C190.465 50.094 190.8 49.6193 190.709 49.1385L190.711 49.0968ZM90.6841 233.441C89.0455 232.702 87.4415 231.939 85.856 231.145C85.4 230.928 84.8639 231.116 84.6403 231.547C84.433 231.987 84.5889 232.504 84.994 232.735L85.0426 232.762C86.6374 233.541 88.2738 234.322 89.9286 235.071C90.3845 235.287 90.9137 235.074 91.1303 234.618C91.3468 234.162 91.1239 233.649 90.6771 233.416L90.6841 233.441Z" fill="#872BFF"/>
<path id="Vector_2" d="M228.363 45.4257C233.08 44.6771 238.726 42.9348 238.555 41.9152C238.385 40.8957 232.486 40.9712 227.76 41.736C227.33 41.8131 226.909 41.8739 226.505 41.9441C225.993 41.5241 224.921 40.6565 223.552 39.5559C223.568 39.5652 223.601 39.5836 223.617 39.5928L224.888 39.394C225.048 39.3775 225.149 39.1992 225.1 39.0213L224.899 37.7914C224.876 37.6064 224.732 37.4818 224.564 37.5145L223.292 37.7133C223.292 37.7133 223.172 37.7737 223.119 37.8293L221.637 38.0586C220.477 37.1195 219.212 36.0997 217.964 35.089L219.21 34.8971C219.369 34.8807 219.471 34.7024 219.422 34.5244L219.221 33.2945C219.197 33.1096 219.054 32.985 218.885 33.0177L217.613 33.2165C217.613 33.2165 217.493 33.2769 217.44 33.3325L216.009 33.5478C212.832 30.989 210.157 28.8663 210.041 28.8434C209.752 28.7861 207.896 29.1456 207.896 29.1456C207.45 29.2135 207.11 29.3205 207.108 29.3621C207.122 29.413 207.616 29.3727 208.037 29.3119L213.133 35.3221C212.787 35.4037 212.546 35.5244 212.558 35.6169C212.577 35.7348 212.951 35.7549 213.381 35.6778L213.432 35.6638L214.429 36.853C214.107 36.9276 213.867 37.0482 213.879 37.1407C213.898 37.2586 214.272 37.2788 214.702 37.2017L215.622 38.2615L216.033 39.1603C215.645 39.2396 215.338 39.365 215.349 39.4575C215.368 39.5754 215.743 39.5956 216.173 39.5185L216.189 39.5277L217.013 41.2837C216.625 41.363 216.317 41.4885 216.345 41.5902C216.364 41.7081 216.739 41.7282 217.169 41.6511L217.916 43.2778C214.756 43.8177 213.508 44.0512 211.166 44.4347C208.808 44.809 206.558 45.3311 204.684 45.8733C202.938 44.4936 199.522 41.7132 199.522 41.7132L198.181 41.8082L200.473 47.3171C200.071 47.4959 199.755 47.6375 199.547 47.7766C198.583 48.0004 197.989 48.1772 198 48.2697C198.012 48.3622 198.613 48.3611 199.571 48.2622C199.818 48.3173 200.193 48.3374 200.667 48.3712L200.185 54.3824L201.496 54.0771C201.496 54.0771 204.047 50.1226 205.237 48.3329C207.128 48.2508 209.306 48.1174 211.614 47.9074C214.536 47.4465 215.831 47.2823 218.524 46.8842L218.312 48.6514C217.857 48.7355 217.524 48.8679 217.543 48.9858C217.554 49.0783 217.878 49.1124 218.29 49.0677L218.06 51.0176L218.044 51.0083C217.588 51.0924 217.246 51.241 217.274 51.3427C217.286 51.4352 217.626 51.4785 218.021 51.4246L217.919 52.3961L217.389 53.7036C216.943 53.7715 216.601 53.9201 216.62 54.038C216.632 54.1305 216.888 54.1694 217.233 54.1294L216.646 55.5758L216.613 55.5574C216.158 55.6415 215.816 55.7901 215.835 55.908C215.846 56.0005 216.129 56.0323 216.473 55.9924L213.485 63.28C213.071 63.3663 212.581 63.4736 212.579 63.5152C212.593 63.566 212.944 63.5515 213.39 63.4836C213.39 63.4836 215.281 63.2513 215.515 63.1052C215.609 63.0518 217.491 60.197 219.728 56.7935L221.159 56.5782C221.159 56.5782 221.289 56.652 221.356 56.6472L222.628 56.4483C222.787 56.4319 222.889 56.2536 222.84 56.0756L222.639 54.8457C222.615 54.6608 222.472 54.5362 222.303 54.5688L221.057 54.7607C221.931 53.4133 222.805 52.0658 223.633 50.7993L225.114 50.57C225.114 50.57 225.244 50.6438 225.311 50.639L226.583 50.4402C226.742 50.4237 226.844 50.2454 226.795 50.0675L226.594 48.8376C226.57 48.6526 226.427 48.528 226.258 48.5607L224.986 48.7595C224.986 48.7595 224.968 48.7919 224.917 48.8059C225.872 47.3542 226.61 46.2082 226.974 45.6433C227.379 45.5731 227.799 45.5123 228.246 45.4444L228.363 45.4257Z" fill="#872BFF"/>
</g>
</svg>
