<svg width="16" height="14" viewBox="0 0 16 14" fill="none" xmlns="http://www.w3.org/2000/svg">
<g id="Frame 2095585134">
<g id="&#194;&#163;0">
<path d="M6.95102 11.8156H0.0335336V10.3452H6.95102V11.8156ZM4.9965 7.99054H0V6.55792H4.9965V7.99054ZM2.7258 4.93617L2.87909 8.98818C2.89826 9.40741 2.828 9.7699 2.66831 10.0757C2.51182 10.3783 2.23557 10.6273 1.83955 10.8227L0.574861 10.3452C0.73135 10.3231 0.851113 10.2427 0.934148 10.104C1.01718 9.96533 1.07307 9.80142 1.10182 9.61229C1.13056 9.42002 1.14174 9.2372 1.13535 9.06383L0.991635 4.93617C0.969279 4.2963 1.09224 3.75887 1.3605 3.32388C1.63197 2.88574 2.00083 2.55634 2.46711 2.3357C2.93339 2.1119 3.44916 2 4.01444 2C4.49988 2 4.93422 2.0725 5.31746 2.21749C5.70389 2.36249 6.02805 2.56422 6.28993 2.82269C6.55501 3.08117 6.74822 3.38061 6.86958 3.72104C6.99414 4.06147 7.03406 4.42868 6.98935 4.8227L5.32704 4.68558C5.3494 4.39874 5.30149 4.16391 5.18333 3.98109C5.06835 3.79511 4.90867 3.65957 4.70428 3.57447C4.50307 3.48621 4.2875 3.44208 4.05756 3.44208C3.82123 3.44208 3.60086 3.49567 3.39647 3.60284C3.19527 3.71001 3.03239 3.87392 2.90784 4.09456C2.78648 4.31521 2.7258 4.59574 2.7258 4.93617Z" fill="#059669"/>
<path d="M12.2203 12C11.4315 12 10.7544 11.803 10.1891 11.409C9.62703 11.0118 9.19429 10.4397 8.89089 9.69267C8.59068 8.94247 8.44058 8.0394 8.44058 6.98345C8.44378 5.9275 8.59547 5.02916 8.89568 4.28842C9.19908 3.54452 9.63182 2.97715 10.1939 2.58629C10.7592 2.19543 11.4346 2 12.2203 2C13.0059 2 13.6814 2.19543 14.2467 2.58629C14.812 2.97715 15.2447 3.54452 15.5449 4.28842C15.8483 5.03231 16 5.93065 16 6.98345C16 8.04255 15.8483 8.9472 15.5449 9.6974C15.2447 10.4444 14.812 11.015 14.2467 11.409C13.6846 11.803 13.0091 12 12.2203 12ZM12.2203 10.5201C12.8335 10.5201 13.3173 10.2222 13.6718 9.62648C14.0295 9.02758 14.2084 8.14657 14.2084 6.98345C14.2084 6.21434 14.1269 5.56816 13.964 5.04492C13.8012 4.52167 13.5712 4.12766 13.2742 3.86288C12.9772 3.59496 12.6259 3.46099 12.2203 3.46099C11.6103 3.46099 11.1281 3.76044 10.7736 4.35934C10.4191 4.95508 10.2402 5.82979 10.237 6.98345C10.2338 7.75571 10.3121 8.40504 10.4718 8.93144C10.6346 9.45784 10.8646 9.855 11.1616 10.1229C11.4586 10.3877 11.8115 10.5201 12.2203 10.5201Z" fill="#059669"/>
</g>
</g>
</svg>
