<svg width="20" height="20" viewBox="0 0 20 20" fill="none" xmlns="http://www.w3.org/2000/svg">
<path d="M19.8608 5.37213C19.8567 5.36486 19.8519 5.35801 19.8466 5.35169C19.7551 5.24348 19.6184 5.19202 19.4895 5.21359L3.24227 7.6395C3.24025 7.63975 3.23826 7.64016 3.23628 7.64052C3.08896 7.66973 2.98499 7.75444 2.95101 7.87295C2.90695 8.02659 2.95784 8.17851 3.07773 8.25466C3.29881 8.43019 3.62883 8.70754 4.01038 9.02817C5.43058 10.2217 6.64108 11.2196 7.07015 11.3426C7.13533 11.3613 7.18967 11.3628 7.23632 11.3472C7.24003 11.3459 7.24366 11.3445 7.24725 11.3429L17.3399 6.90036L7.56208 12.3762C7.48506 12.4174 7.43211 12.5211 7.40998 12.5983C7.40947 12.6001 7.40899 12.6019 7.40857 12.6037L6.60702 15.9362C6.56604 16.0846 6.6346 16.2524 6.76745 16.3275C6.77627 16.3325 6.78563 16.3364 6.79535 16.3392L6.8631 16.3586C6.96716 16.3884 7.07489 16.3789 7.15861 16.3325C7.17084 16.3257 7.18187 16.317 7.19127 16.3067L9.67585 13.586L12.1657 16.4732C12.194 16.5066 12.2396 16.5532 12.3085 16.5729C12.3686 16.5902 12.4245 16.5806 12.4654 16.5691C12.5739 16.5611 12.6628 16.5089 12.7234 16.4177L19.8455 5.7829C19.8534 5.77331 19.86 5.76251 19.865 5.75058C19.9286 5.6285 19.9273 5.49139 19.8608 5.37213Z" fill="#003D82"/>
</svg>
