<svg width="20" height="20" viewBox="0 0 20 20" fill="none" xmlns="http://www.w3.org/2000/svg">
<g id="graphic">
<g id="Group">
<path id="Vector" d="M19.8608 5.37213C19.8567 5.36486 19.8519 5.35801 19.8466 5.35169C19.7551 5.24348 19.6184 5.19202 19.4895 5.21359L3.24226 7.6395C3.24024 7.63975 3.23825 7.64016 3.23627 7.64052C3.08895 7.66973 2.98498 7.75444 2.951 7.87295C2.90694 8.02659 2.95784 8.17851 3.07772 8.25466C3.2988 8.43019 3.62882 8.70754 4.01037 9.02817C5.43057 10.2217 6.64107 11.2196 7.07014 11.3426C7.13532 11.3613 7.18966 11.3628 7.23631 11.3472C7.24002 11.3459 7.24365 11.3445 7.24724 11.3429L17.3399 6.90036L7.56207 12.3762C7.48505 12.4174 7.4321 12.5211 7.40997 12.5983C7.40946 12.6001 7.40898 12.6019 7.40856 12.6037L6.60702 15.9362C6.56603 16.0846 6.6346 16.2524 6.76744 16.3275C6.77626 16.3325 6.78562 16.3364 6.79534 16.3392L6.86309 16.3586C6.96715 16.3884 7.07488 16.3789 7.1586 16.3325C7.17083 16.3257 7.18186 16.317 7.19126 16.3067L9.67584 13.586L12.1657 16.4732C12.194 16.5066 12.2396 16.5532 12.3085 16.5729C12.3686 16.5902 12.4245 16.5806 12.4654 16.5691C12.5738 16.5611 12.6628 16.5089 12.7234 16.4177L19.8455 5.7829C19.8534 5.77331 19.86 5.76251 19.865 5.75058C19.9286 5.6285 19.9273 5.49139 19.8608 5.37213Z" fill="white"/>
</g>
</g>
</svg>
