<svg width="32" height="32" viewBox="0 0 32 32" fill="none" xmlns="http://www.w3.org/2000/svg">
<g id="graphic">
<path id="Vector" d="M12 3H5C3.8954 3 3 3.8954 3 5V12C3 13.1046 3.8954 14 5 14H12C13.1046 14 14 13.1046 14 12V5C14 3.8954 13.1046 3 12 3Z" stroke="#003D82" stroke-width="2"/>
<path id="Vector_2" d="M27 3H20C18.8954 3 18 3.8954 18 5V12C18 13.1046 18.8954 14 20 14H27C28.1046 14 29 13.1046 29 12V5C29 3.8954 28.1046 3 27 3Z" stroke="#003D82" stroke-width="2"/>
<path id="Vector_3" d="M12 18H5C3.8954 18 3 18.8954 3 20V27C3 28.1046 3.8954 29 5 29H12C13.1046 29 14 28.1046 14 27V20C14 18.8954 13.1046 18 12 18Z" stroke="#003D82" stroke-width="2"/>
<path id="Vector_4" d="M27 18H20C18.8954 18 18 18.8954 18 20V27C18 28.1046 18.8954 29 20 29H27C28.1046 29 29 28.1046 29 27V20C29 18.8954 28.1046 18 27 18Z" stroke="#003D82" stroke-width="2"/>
</g>
</svg>
