<svg width="17" height="14" viewBox="0 0 17 14" fill="none" xmlns="http://www.w3.org/2000/svg">
<g id="Frame 2095585134">
<path id="&#226;&#159;&#179;" d="M13.76 6.896C14.32 6.4 15.184 5.888 16.304 5.36V6.288C14.992 7.408 14.032 8.592 13.424 9.808H12.96C12.352 8.592 11.376 7.408 10.08 6.288V5.36C11.184 5.888 12.048 6.4 12.624 6.896V6.88C12.624 3.696 10.048 1.136 6.88 1.136C3.696 1.136 1.136 3.696 1.136 6.88C1.136 10.064 3.696 12.624 6.88 12.624C9.072 12.624 10.768 11.376 11.504 10.288L12.352 11.04C11.344 12.48 9.312 13.76 6.88 13.76C3.072 13.76 0 10.688 0 6.88C0 3.072 3.072 0 6.88 0C10.688 0 13.76 3.072 13.76 6.88V6.896Z" fill="#F97316"/>
</g>
</svg>
