<svg width="92" height="100" viewBox="0 0 92 100" fill="none" xmlns="http://www.w3.org/2000/svg">
<g id="Vector" opacity="0.5">
<path id="Vector_2" fill-rule="evenodd" clip-rule="evenodd" d="M77.849 0H79.2103V16.4607C79.9535 16.6875 80.6184 17.0943 81.1543 17.6303C81.9993 18.4752 82.5234 19.6447 82.5234 20.9356C82.5234 22.2265 81.9993 23.396 81.1543 24.241C80.3094 25.0859 79.1399 25.6101 77.849 25.6101C76.5581 25.6101 75.3886 25.0859 74.5436 24.241C73.6987 23.3961 73.1746 22.2265 73.1746 20.9356C73.1746 19.6447 73.6987 18.4752 74.5436 17.6303C75.0795 17.0944 75.7445 16.6876 76.4877 16.4607V1.36188C76.4916 0.610841 77.0979 0 77.849 0ZM81.9288 0V10.143H90.3975C90.7456 10.143 91.0937 10.01 91.3597 9.74398C91.8917 9.21199 91.8917 8.35146 91.3597 7.82333L88.6099 5.07345L91.3519 2.33137C91.6023 2.08494 91.7587 1.74072 91.7587 1.36128C91.7587 0.61025 91.1485 1.00274e-05 90.3975 1.00274e-05L81.9288 0ZM4.67444 86.6113C5.96531 86.6113 7.13482 87.1354 7.97979 87.9803C8.82475 88.8253 9.34887 89.9948 9.34887 91.2857C9.34887 92.5766 8.82471 93.7461 7.97979 94.591C7.13486 95.436 5.96531 95.9601 4.67444 95.9601C3.38356 95.9601 2.21405 95.436 1.36909 94.591C0.524122 93.7461 0 92.5766 0 91.2857C0 89.9948 0.524162 88.8253 1.36909 87.9803C2.21401 87.1354 3.38356 86.6113 4.67444 86.6113ZM51.8583 81.9569C52.0886 83.4175 51.3361 84.8231 49.1845 85.9702C47.8258 86.6953 45.8044 87.3625 42.9714 87.9042C41.2776 91.553 39.6144 95.2446 37.8776 98.8722L37.8717 98.885C37.8573 98.9189 37.8384 98.9496 37.8195 98.9803C37.6169 99.3528 37.325 99.6365 36.9878 99.8084C36.951 99.8261 36.918 99.8432 36.8806 99.857C36.4319 100.051 35.9451 100.052 35.475 99.8331L35.4532 99.8207C35.0376 99.6209 34.7211 99.2709 34.5345 98.8409C34.3902 98.5033 34.3203 98.1104 34.3572 97.7165L35.1479 88.868C33.9176 88.9512 32.721 88.9972 31.5943 89.0086C30.3723 89.0191 29.2234 88.9904 28.2009 88.91L26.4709 91.8518C26.4422 91.8959 26.4135 91.94 26.3849 91.9842L25.9554 92.5508C25.7551 92.8121 25.4966 93.0311 25.1931 93.166C24.8083 93.3376 24.3811 93.3653 23.9433 93.2007C23.4721 93.0255 23.1804 92.7072 23.0007 92.2959C22.8948 92.0513 22.8519 91.8046 22.8329 91.5581L22.53 86.5728L21.2843 81.7362C21.2227 81.4964 21.3499 81.2695 21.3792 81.0035C21.4236 80.557 21.441 80.1433 21.8354 79.8316C22.2013 79.5403 22.617 79.4391 23.0353 79.4801C23.3655 79.5151 23.6789 79.6439 23.9499 79.8309L24.5328 80.2379C24.5948 80.2796 24.6497 80.3264 24.7052 80.377L27.2105 82.6035C28.1586 82.2124 29.243 81.8316 30.4089 81.4656C31.4845 81.1297 32.6411 80.8048 33.8334 80.5059L30.3584 72.33C30.2021 71.9665 30.1477 71.5712 30.1812 71.2056C30.2264 70.7391 30.416 70.3093 30.7539 69.9907L30.761 69.9856L30.7634 70.001L30.7667 69.9966C30.7978 69.9679 30.8289 69.9392 30.8645 69.9138C31.2571 69.5906 31.7295 69.4725 32.2208 69.5495C32.2696 69.5576 32.3145 69.5664 32.36 69.579C32.7181 69.6651 33.0573 69.8571 33.3377 70.1535C36.0815 73.1146 38.8254 76.0756 41.5731 79.0361C44.4354 78.6798 46.5633 78.6888 48.0799 78.9645C50.48 79.3939 51.6286 80.5002 51.8583 81.9569Z" fill="#003D82"/>
</g>
</svg>
