<svg width="122" height="18" viewBox="0 0 122 18" fill="none" xmlns="http://www.w3.org/2000/svg">
<g id="MaqsoodTravel">
<path d="M2.29239 13.7636H0V0.240494H2.29239L6.65533 11.0072L11.0183 0.240494H13.3476V13.7636H11.0552V9.60123C11.0552 6.88181 11.0552 6.08633 11.1847 5.12436L7.74607 13.7636H5.5646L2.1445 5.14286C2.27391 5.95683 2.29239 7.2333 2.29239 8.91675V13.7636Z" fill="#101828"/>
<path d="M18.2151 14.0041C16.2739 14.0041 15.0908 12.8756 15.0908 11.1552C15.0908 9.47174 16.3109 8.41727 18.4739 8.25077L21.21 8.04728V7.84378C21.21 6.60432 20.4705 6.10483 19.3243 6.10483C17.9932 6.10483 17.2537 6.65981 17.2537 7.62179H15.3311C15.3311 5.64234 16.958 4.34738 19.4352 4.34738C21.894 4.34738 23.4099 5.67934 23.4099 8.21377V13.7636H21.4318L21.2654 12.4132C20.8772 13.3566 19.6386 14.0041 18.2151 14.0041ZM18.9546 12.3022C20.3411 12.3022 21.2285 11.4697 21.2285 10.0637V9.58273L19.3243 9.73073C17.9193 9.86023 17.3832 10.3227 17.3832 11.0627C17.3832 11.8952 17.9378 12.3022 18.9546 12.3022Z" fill="#101828"/>
<path d="M24.5811 9.08325C24.5811 6.21583 26.2819 4.34738 28.8516 4.34738C30.2381 4.34738 31.4398 4.95786 31.9944 6.01233L32.1423 4.62487H34.2129V18H31.9759V12.5427C31.4028 13.4676 30.2012 14.0041 28.8516 14.0041C26.134 14.0041 24.5811 11.9322 24.5811 9.08325ZM26.8365 9.19424C26.8365 10.8222 27.7979 11.9692 29.3693 11.9692C30.9407 11.9692 31.9574 10.8407 31.9574 9.19424C31.9574 7.54779 30.9407 6.40082 29.3693 6.40082C27.7979 6.40082 26.8365 7.56629 26.8365 9.19424Z" fill="#101828"/>
<path d="M35.3524 10.9887H37.4969C37.5154 11.7842 38.107 12.2837 39.1423 12.2837C40.196 12.2837 40.7691 11.8582 40.7691 11.1922C40.7691 10.7297 40.5288 10.3967 39.7154 10.2117L38.07 9.82323C36.4247 9.45324 35.6297 8.67626 35.6297 7.2148C35.6297 5.42035 37.1457 4.34738 39.2532 4.34738C41.3052 4.34738 42.6918 5.53135 42.7103 7.3073H40.5658C40.5473 6.53032 40.0296 6.03083 39.1607 6.03083C38.2734 6.03083 37.7557 6.43782 37.7557 7.1223C37.7557 7.64029 38.1624 7.97328 38.9389 8.15827L40.5842 8.54676C42.1187 8.89825 42.8951 9.60123 42.8951 11.0072C42.8951 12.8571 41.3237 14.0041 39.0683 14.0041C36.7944 14.0041 35.3524 12.7831 35.3524 10.9887Z" fill="#101828"/>
<path d="M43.5679 9.17574C43.5679 6.32682 45.6199 4.36588 48.4485 4.36588C51.277 4.36588 53.329 6.32682 53.329 9.17574C53.329 12.0247 51.277 13.9856 48.4485 13.9856C45.6199 13.9856 43.5679 12.0247 43.5679 9.17574ZM45.8233 9.17574C45.8233 10.8407 46.8955 11.9692 48.4485 11.9692C50.0014 11.9692 51.0736 10.8407 51.0736 9.17574C51.0736 7.51079 50.0014 6.38232 48.4485 6.38232C46.8955 6.38232 45.8233 7.51079 45.8233 9.17574Z" fill="#101828"/>
<path d="M54.0723 9.17574C54.0723 6.32682 56.1243 4.36588 58.9528 4.36588C61.7814 4.36588 63.8334 6.32682 63.8334 9.17574C63.8334 12.0247 61.7814 13.9856 58.9528 13.9856C56.1243 13.9856 54.0723 12.0247 54.0723 9.17574ZM56.3277 9.17574C56.3277 10.8407 57.3999 11.9692 58.9528 11.9692C60.5058 11.9692 61.578 10.8407 61.578 9.17574C61.578 7.51079 60.5058 6.38232 58.9528 6.38232C57.3999 6.38232 56.3277 7.51079 56.3277 9.17574Z" fill="#101828"/>
<path d="M68.8657 14.0041C66.222 14.0041 64.5767 12.0617 64.5767 9.23124C64.5767 6.38232 66.2405 4.34738 68.9951 4.34738C70.2707 4.34738 71.3984 4.88386 71.9715 5.79034V0H74.2084V13.7636H72.1379L71.99 12.3392C71.4354 13.3936 70.2522 14.0041 68.8657 14.0041ZM69.3648 11.9322C70.9362 11.9322 71.953 10.8037 71.953 9.15725C71.953 7.51079 70.9362 6.36382 69.3648 6.36382C67.7934 6.36382 66.8321 7.52929 66.8321 9.15725C66.8321 10.7852 67.7934 11.9322 69.3648 11.9322Z" fill="#101828"/>
<path d="M75.2001 2.42343V0.240494H85.4789V2.42343H81.5226V13.7636H79.1563V2.42343H75.2001Z" fill="#101828"/>
<path d="M91.0762 4.58787V6.67831H90.2443C88.6175 6.67831 87.6007 7.54779 87.6007 9.32374V13.7636H85.3453V4.64337H87.4713L87.6007 5.97533C87.9889 5.06886 88.8578 4.45838 90.0779 4.45838C90.3922 4.45838 90.7065 4.49537 91.0762 4.58787Z" fill="#101828"/>
<path d="M94.451 14.0041C92.5099 14.0041 91.3267 12.8756 91.3267 11.1552C91.3267 9.47174 92.5468 8.41727 94.7098 8.25077L97.4459 8.04728V7.84378C97.4459 6.60432 96.7064 6.10483 95.5602 6.10483C94.2291 6.10483 93.4897 6.65981 93.4897 7.62179H91.567C91.567 5.64234 93.1939 4.34738 95.6711 4.34738C98.1299 4.34738 99.6458 5.67934 99.6458 8.21377V13.7636H97.6677L97.5014 12.4132C97.1131 13.3566 95.8745 14.0041 94.451 14.0041ZM95.1905 12.3022C96.577 12.3022 97.4644 11.4697 97.4644 10.0637V9.58273L95.5602 9.73073C94.1552 9.86023 93.6191 10.3227 93.6191 11.0627C93.6191 11.8952 94.1737 12.3022 95.1905 12.3022Z" fill="#101828"/>
<path d="M103.58 13.7636L99.9568 4.62487H102.36L103.95 8.82425C104.338 9.91572 104.653 10.8592 104.763 11.3587C104.893 10.7852 105.226 9.82323 105.614 8.82425L107.278 4.62487H109.607L105.799 13.7636H103.58Z" fill="#101828"/>
<path d="M114.029 14.0041C111.312 14.0041 109.408 12.0247 109.408 9.19424C109.408 6.32682 111.275 4.34738 113.956 4.34738C116.692 4.34738 118.429 6.17883 118.429 9.02775V9.71223L111.552 9.73073C111.719 11.3402 112.569 12.1542 114.066 12.1542C115.305 12.1542 116.119 11.6732 116.377 10.8037H118.466C118.078 12.8016 116.414 14.0041 114.029 14.0041ZM113.974 6.19733C112.643 6.19733 111.83 6.91881 111.608 8.28777H116.192C116.192 7.0298 115.324 6.19733 113.974 6.19733Z" fill="#101828"/>
<path d="M122 13.7636H119.763V0H122V13.7636Z" fill="#101828"/>
</g>
</svg>
